<svg width="97" height="96" viewBox="0 0 97 96" fill="none" xmlns="http://www.w3.org/2000/svg">
<path d="M48.2478 22.827C34.1192 22.827 22.6625 34.2817 22.6625 48.4123C22.6625 59.7165 29.9934 69.307 40.1593 72.6901C41.4379 72.9269 41.9074 72.1351 41.9074 71.4593C41.9074 70.8492 41.8836 68.8337 41.8726 66.6958C34.7548 68.2436 33.2528 63.6771 33.2528 63.6771C32.089 60.7198 30.412 59.9335 30.412 59.9335C28.0907 58.3455 30.587 58.3781 30.587 58.3781C33.1562 58.5586 34.509 61.0147 34.509 61.0147C36.791 64.9261 40.4944 63.7953 41.9544 63.1416C42.184 61.4879 42.8471 60.3593 43.5788 59.7204C37.8959 59.0734 31.922 56.8796 31.922 47.076C31.922 44.2827 32.9215 42.0003 34.5582 40.2085C34.2925 39.5641 33.4168 36.9619 34.806 33.4377C34.806 33.4377 36.9545 32.7501 41.8438 36.0603C43.8847 35.4934 46.0734 35.2091 48.2478 35.1994C50.4221 35.2091 52.6125 35.4934 54.6572 36.0603C59.5406 32.7501 61.6861 33.4377 61.6861 33.4377C63.0787 36.9619 62.2025 39.5641 61.9369 40.2085C63.5774 42.0003 64.5701 44.2827 64.5701 47.076C64.5701 56.9029 58.5847 59.0666 52.8875 59.7C53.8052 60.494 54.6229 62.051 54.6229 64.438C54.6229 67.8614 54.5932 70.6166 54.5932 71.4593C54.5932 72.1401 55.0538 72.9379 56.3507 72.6867C66.511 69.2998 73.8326 59.7127 73.8326 48.4123C73.8326 34.2817 62.3775 22.827 48.2478 22.827ZM32.245 59.2738C32.1886 59.4009 31.9887 59.439 31.8065 59.3517C31.6209 59.2683 31.5167 59.095 31.5768 58.9675C31.6319 58.8365 31.8323 58.8001 32.0175 58.8878C32.2035 58.9713 32.3094 59.1463 32.245 59.2738ZM33.5035 60.3967C33.3815 60.5099 33.143 60.4573 32.9811 60.2785C32.8138 60.1002 32.7824 59.8616 32.9061 59.7468C33.0319 59.6337 33.2633 59.6866 33.4311 59.865C33.5984 60.0455 33.631 60.2823 33.5035 60.3967ZM34.3669 61.8335C34.2101 61.9424 33.9538 61.8403 33.7953 61.6128C33.6386 61.3853 33.6386 61.1124 33.7987 61.0031C33.9576 60.8938 34.2101 60.9921 34.3707 61.2179C34.527 61.4492 34.527 61.7221 34.3669 61.8335ZM35.8271 63.4975C35.6868 63.6522 35.3881 63.6106 35.1695 63.3996C34.9458 63.1933 34.8835 62.9005 35.0242 62.7459C35.1661 62.5908 35.4665 62.6345 35.6868 62.8438C35.9088 63.0497 35.9766 63.3446 35.8271 63.4975ZM37.7142 64.0593C37.6523 64.2597 37.3647 64.3507 37.0749 64.2656C36.7855 64.1779 36.5961 63.9432 36.6546 63.7406C36.7147 63.539 37.0037 63.4441 37.2956 63.5352C37.5845 63.6224 37.7744 63.8555 37.7142 64.0593ZM39.8618 64.2975C39.869 64.5085 39.6233 64.6835 39.3191 64.6873C39.0132 64.6941 38.7658 64.5234 38.7624 64.3158C38.7624 64.1026 39.0026 63.9294 39.3085 63.9243C39.6127 63.9183 39.8618 64.0878 39.8618 64.2975ZM41.9716 64.2167C42.0081 64.4226 41.7967 64.634 41.4946 64.6903C41.1976 64.7446 40.9226 64.6175 40.8849 64.4132C40.848 64.2023 41.0633 63.9908 41.3598 63.9362C41.6623 63.8836 41.9331 64.0074 41.9716 64.2167Z" fill="white"/>
<circle cx="48.2851" cy="47.9839" r="47.0522" stroke="white" stroke-width="1.86345"/>
</svg>
