<svg width="96" height="97" viewBox="0 0 96 97" fill="none" xmlns="http://www.w3.org/2000/svg">
<path d="M44.6926 46.6479C45.4725 45.4339 45.9178 43.9857 45.8921 42.4329C45.8231 38.2778 42.3651 34.9758 38.2093 34.9758H26.6069C26.0634 34.9758 25.6228 35.4164 25.6228 35.9598V61.475C25.6228 62.0184 26.0634 62.459 26.6069 62.459H39.5672C44.3776 62.459 48.3623 58.6036 48.3819 53.7932C48.394 50.8452 46.9321 48.2315 44.6926 46.6479ZM30.7129 40.0658H38.3084C39.6839 40.0658 40.8031 41.1849 40.8031 42.5606C40.8031 43.9361 39.684 45.0553 38.3084 45.0553H30.7129V40.0658ZM39.6803 57.369H30.7129V50.1454H38.3084H39.6802C41.6717 50.1454 43.292 51.7657 43.292 53.7572C43.292 55.7487 41.6718 57.369 39.6803 57.369Z" fill="white"/>
<path d="M70.6813 51.9842C70.6813 46.0429 65.9987 41.2095 60.2428 41.2095C54.487 41.2095 49.8043 46.043 49.8043 51.9842C49.8043 57.9253 54.4871 62.7589 60.2428 62.7589C63.7354 62.7589 66.9807 60.9685 68.924 57.9694C69.1663 57.5955 69.3864 57.2048 69.5817 56.8022C69.7234 56.5098 69.5084 56.1697 69.1834 56.1689L64.0522 56.1561C63.9387 56.1558 63.831 56.2022 63.7496 56.2813C62.7807 57.2234 61.5928 57.6688 60.2428 57.6688C57.6927 57.6688 55.5551 55.7615 55.0229 53.2189H69.6598C70.224 53.2189 70.6813 52.7615 70.6813 52.1974V51.9842ZM60.2428 46.2996C62.1105 46.2996 63.7566 47.323 64.7136 48.8693H55.7722C56.729 47.323 58.3752 46.2996 60.2428 46.2996Z" fill="white"/>
<path d="M64.5804 39.9447H55.322C54.89 39.9447 54.5398 39.5945 54.5398 39.1626V36.8399C54.5398 36.4079 54.89 36.0577 55.322 36.0577H64.5804C65.0124 36.0577 65.3626 36.4079 65.3626 36.8399V39.1626C65.3626 39.5946 65.0124 39.9447 64.5804 39.9447Z" fill="white"/>
<circle cx="47.9839" cy="48.9518" r="47.0522" stroke="white" stroke-width="1.86345"/>
</svg>
