<svg width="96" height="96" viewBox="0 0 96 96" fill="none" xmlns="http://www.w3.org/2000/svg">
<path d="M48.059 26.9916C54.9207 26.9916 55.7334 27.0177 58.4432 27.1414C60.9487 27.2557 62.3094 27.6744 63.215 28.0262C64.4144 28.4924 65.2706 29.0493 66.1698 29.9485C67.069 30.8477 67.6259 31.7039 68.092 32.9033C68.444 33.8089 68.8626 35.1696 68.9769 37.6751C69.1006 40.3849 69.1267 41.1976 69.1267 48.0593C69.1267 54.921 69.1006 55.7337 68.9769 58.4434C68.8626 60.949 68.444 62.3097 68.092 63.2153C67.6259 64.4147 67.069 65.2709 66.1698 66.1701C65.2706 67.0693 64.4144 67.6262 63.215 68.0923C62.3094 68.4442 60.9487 68.8629 58.4432 68.9772C55.7338 69.1009 54.9211 69.127 48.059 69.127C41.1969 69.127 40.3842 69.1009 37.6749 68.9772C35.1694 68.8629 33.8087 68.4442 32.9031 68.0923C31.7036 67.6262 30.8475 67.0693 29.9483 66.1701C29.0491 65.2709 28.4921 64.4147 28.026 63.2153C27.6741 62.3097 27.2554 60.949 27.1411 58.4435C27.0175 55.7337 26.9913 54.921 26.9913 48.0593C26.9913 41.1976 27.0175 40.3849 27.1411 37.6752C27.2554 35.1696 27.6741 33.8089 28.026 32.9033C28.4921 31.7039 29.0491 30.8477 29.9483 29.9485C30.8475 29.0493 31.7036 28.4924 32.9031 28.0262C33.8087 27.6744 35.1693 27.2557 37.6748 27.1414C40.3846 27.0177 41.1973 26.9916 48.059 26.9916ZM48.059 22.3613C41.0798 22.3613 40.2048 22.3908 37.4638 22.5159C34.7285 22.6408 32.8605 23.0751 31.2258 23.7104C29.5359 24.3671 28.1028 25.2458 26.6742 26.6745C25.2456 28.1031 24.3669 29.5362 23.7101 31.2261C23.0748 32.8608 22.6405 34.7287 22.5156 37.4641C22.3906 40.205 22.3611 41.0801 22.3611 48.0593C22.3611 55.0385 22.3906 55.9136 22.5156 58.6545C22.6405 61.3898 23.0748 63.2578 23.7101 64.8925C24.3669 66.5823 25.2456 68.0155 26.6742 69.4441C28.1028 70.8727 29.5359 71.7514 31.2258 72.4082C32.8605 73.0435 34.7285 73.4778 37.4638 73.6027C40.2048 73.7277 41.0798 73.7572 48.059 73.7572C55.0382 73.7572 55.9134 73.7277 58.6542 73.6027C61.3896 73.4778 63.2575 73.0435 64.8922 72.4082C66.5821 71.7514 68.0152 70.8727 69.4438 69.4441C70.8725 68.0155 71.7512 66.5824 72.4079 64.8925C73.0432 63.2578 73.4776 61.3898 73.6024 58.6545C73.7275 55.9136 73.7571 55.0385 73.7571 48.0593C73.7571 41.0801 73.7275 40.205 73.6024 37.4641C73.4776 34.7287 73.0432 32.8608 72.4079 31.2261C71.7512 29.5362 70.8725 28.1031 69.4438 26.6745C68.0152 25.2458 66.5821 24.3671 64.8922 23.7104C63.2575 23.0751 61.3896 22.6408 58.6542 22.5159C55.9134 22.3908 55.0382 22.3613 48.059 22.3613ZM48.059 34.863C40.7709 34.863 34.8627 40.7712 34.8627 48.0593C34.8627 55.3474 40.7709 61.2556 48.059 61.2556C55.3471 61.2556 61.2553 55.3474 61.2553 48.0593C61.2553 40.7712 55.3471 34.863 48.059 34.863ZM48.059 56.6253C43.3282 56.6253 39.493 52.7901 39.493 48.0593C39.493 43.3285 43.3282 39.4932 48.059 39.4932C52.7899 39.4932 56.6251 43.3285 56.6251 48.0593C56.6251 52.7901 52.7899 56.6253 48.059 56.6253ZM64.8604 34.3416C64.8604 36.0448 63.4798 37.4254 61.7767 37.4254C60.0736 37.4254 58.6929 36.0448 58.6929 34.3416C58.6929 32.6385 60.0736 31.2579 61.7767 31.2579C63.4798 31.2579 64.8604 32.6385 64.8604 34.3416Z" fill="white"/>
<circle cx="47.9839" cy="47.9839" r="47.0522" stroke="white" stroke-width="1.86345"/>
</svg>
